<svg width="196" height="49" viewBox="0 0 196 49" fill="none" xmlns="http://www.w3.org/2000/svg">
<g clip-path="url(#clip0_1763_2021)">
<path d="M35.3174 29.4752V38.4315H47.8635C49.8436 38.4315 51.7427 37.6551 53.1428 36.2732C54.543 34.8913 55.3296 33.0171 55.3296 31.0628C55.3296 29.1084 54.543 27.2342 53.1428 25.8523C51.7427 24.4704 49.8436 23.6941 47.8635 23.6941L13.7862 23.3545C11.8061 23.3545 9.90707 24.1308 8.50692 25.5127C7.10678 26.8946 6.32019 28.7689 6.32019 30.7232C6.32019 32.6775 7.10678 34.5518 8.50692 35.9337C9.90707 37.3156 11.8061 38.0919 13.7862 38.0919H25.9213V29.3959" stroke="white" stroke-width="5" stroke-miterlimit="10"/>
<path d="M25.9746 17.9744V9.40186H15.1129C11.5385 9.40186 8.65216 12.5592 8.65216 16.4575V19.5443" stroke="white" stroke-width="5" stroke-miterlimit="10"/>
<path d="M35.4606 17.9744V9.40186H46.3222C49.8966 9.40186 52.783 12.5592 52.783 16.4575V19.5443" stroke="white" stroke-width="5" stroke-miterlimit="10"/>
<path d="M64.1498 5.95703H72.1615C73.7474 5.95703 74.9278 6.02539 75.7025 6.16211C76.4864 6.28971 77.1836 6.56315 77.7943 6.98242C78.4141 7.40169 78.9291 7.96224 79.3392 8.66406C79.7494 9.35677 79.9545 10.1361 79.9545 11.002C79.9545 11.9408 79.6993 12.8021 79.1888 13.5859C78.6875 14.3698 78.0039 14.9577 77.1381 15.3496C78.3594 15.7051 79.2982 16.3112 79.9545 17.168C80.6107 18.0247 80.9388 19.0319 80.9388 20.1895C80.9388 21.1009 80.7247 21.9896 80.2963 22.8555C79.877 23.7122 79.2982 24.4004 78.5599 24.9199C77.8308 25.4303 76.9284 25.7448 75.8529 25.8633C75.1784 25.9362 73.5515 25.9818 70.972 26H64.1498V5.95703ZM68.1967 9.29297V13.9277H70.849C72.4258 13.9277 73.4056 13.9049 73.7885 13.8594C74.4812 13.7773 75.0235 13.5404 75.4154 13.1484C75.8164 12.7474 76.017 12.2233 76.017 11.5762C76.017 10.9564 75.8438 10.4551 75.4974 10.0723C75.1602 9.68034 74.6543 9.44336 73.9799 9.36133C73.5788 9.31576 72.4258 9.29297 70.5209 9.29297H68.1967ZM68.1967 17.2637V22.623H71.9427C73.4011 22.623 74.3262 22.582 74.7181 22.5C75.3197 22.3906 75.8073 22.1263 76.181 21.707C76.5638 21.2786 76.7552 20.709 76.7552 19.998C76.7552 19.3965 76.6094 18.8861 76.3177 18.4668C76.0261 18.0475 75.6023 17.7422 75.0463 17.5508C74.4994 17.3594 73.3054 17.2637 71.4642 17.2637H68.1967ZM83.4545 18.5352C83.4545 17.2591 83.7689 16.0241 84.3978 14.8301C85.0267 13.6361 85.9154 12.7246 87.0638 12.0957C88.2214 11.4668 89.5111 11.1523 90.933 11.1523C93.1296 11.1523 94.9297 11.8678 96.3334 13.2988C97.737 14.7207 98.4388 16.5208 98.4388 18.6992C98.4388 20.8958 97.7279 22.7188 96.306 24.168C94.8933 25.6081 93.1114 26.3281 90.9603 26.3281C89.6296 26.3281 88.3581 26.0273 87.1459 25.4258C85.9427 24.8242 85.0267 23.9447 84.3978 22.7871C83.7689 21.6204 83.4545 20.2031 83.4545 18.5352ZM87.392 18.7402C87.392 20.1803 87.7338 21.2832 88.4174 22.0488C89.101 22.8145 89.9441 23.1973 90.9467 23.1973C91.9493 23.1973 92.7878 22.8145 93.4623 22.0488C94.1459 21.2832 94.4877 20.1712 94.4877 18.7129C94.4877 17.291 94.1459 16.1973 93.4623 15.4316C92.7878 14.666 91.9493 14.2832 90.9467 14.2832C89.9441 14.2832 89.101 14.666 88.4174 15.4316C87.7338 16.1973 87.392 17.3001 87.392 18.7402ZM99.6146 26L104.851 18.5215L99.8334 11.4805H104.523L107.093 15.4727L109.8 11.4805H114.312L109.39 18.3574L114.763 26H110.046L107.093 21.502L104.113 26H99.6146ZM117.087 5.95703H125.099C126.685 5.95703 127.865 6.02539 128.64 6.16211C129.424 6.28971 130.121 6.56315 130.732 6.98242C131.352 7.40169 131.867 7.96224 132.277 8.66406C132.687 9.35677 132.892 10.1361 132.892 11.002C132.892 11.9408 132.637 12.8021 132.126 13.5859C131.625 14.3698 130.941 14.9577 130.076 15.3496C131.297 15.7051 132.236 16.3112 132.892 17.168C133.548 18.0247 133.876 19.0319 133.876 20.1895C133.876 21.1009 133.662 21.9896 133.234 22.8555C132.814 23.7122 132.236 24.4004 131.497 24.9199C130.768 25.4303 129.866 25.7448 128.79 25.8633C128.116 25.9362 126.489 25.9818 123.91 26H117.087V5.95703ZM121.134 9.29297V13.9277H123.786C125.363 13.9277 126.343 13.9049 126.726 13.8594C127.419 13.7773 127.961 13.5404 128.353 13.1484C128.754 12.7474 128.954 12.2233 128.954 11.5762C128.954 10.9564 128.781 10.4551 128.435 10.0723C128.098 9.68034 127.592 9.44336 126.917 9.36133C126.516 9.31576 125.363 9.29297 123.458 9.29297H121.134ZM121.134 17.2637V22.623H124.88C126.339 22.623 127.264 22.582 127.656 22.5C128.257 22.3906 128.745 22.1263 129.119 21.707C129.501 21.2786 129.693 20.709 129.693 19.998C129.693 19.3965 129.547 18.8861 129.255 18.4668C128.964 18.0475 128.54 17.7422 127.984 17.5508C127.437 17.3594 126.243 17.2637 124.402 17.2637H121.134ZM142.572 26V17.5645L135.23 5.95703H139.974L144.691 13.8867L149.312 5.95703H153.974L146.605 17.5918V26H142.572ZM156.093 26V6.12109H160.14V22.623H170.203V26H156.093ZM173.087 5.95703H180.484C182.152 5.95703 183.423 6.08464 184.298 6.33984C185.474 6.6862 186.481 7.30143 187.32 8.18555C188.158 9.06966 188.796 10.1543 189.234 11.4395C189.671 12.7155 189.89 14.2923 189.89 16.1699C189.89 17.8197 189.685 19.2415 189.275 20.4355C188.773 21.8939 188.058 23.0742 187.128 23.9766C186.426 24.6602 185.479 25.1934 184.285 25.5762C183.391 25.8587 182.197 26 180.703 26H173.087V5.95703ZM177.134 9.34766V22.623H180.156C181.286 22.623 182.102 22.5592 182.603 22.4316C183.259 22.2676 183.801 21.9896 184.23 21.5977C184.667 21.2057 185.023 20.5632 185.296 19.6699C185.57 18.7676 185.706 17.5417 185.706 15.9922C185.706 14.4427 185.57 13.2533 185.296 12.4238C185.023 11.5944 184.64 10.9473 184.148 10.4824C183.656 10.0176 183.031 9.70312 182.275 9.53906C181.71 9.41146 180.602 9.34766 178.953 9.34766H177.134Z" fill="white"/>
<path d="M67.9173 33.1075C68.6746 33.1075 69.3359 33.2729 69.9013 33.6035C70.4773 33.9342 70.9039 34.3502 71.1813 34.8515V33.2515H72.6533V42.2115C72.6533 43.0115 72.4826 43.7209 72.1413 44.3395C71.7999 44.9689 71.3093 45.4595 70.6693 45.8115C70.0399 46.1635 69.3039 46.3395 68.4613 46.3395C67.3093 46.3395 66.3493 46.0675 65.5813 45.5235C64.8133 44.9795 64.3599 44.2382 64.2213 43.2995H65.6613C65.8213 43.8329 66.1519 44.2595 66.6533 44.5795C67.1546 44.9102 67.7573 45.0755 68.4613 45.0755C69.2613 45.0755 69.9119 44.8249 70.4133 44.3235C70.9253 43.8222 71.1813 43.1182 71.1813 42.2115V40.3715C70.8933 40.8835 70.4666 41.3102 69.9013 41.6515C69.3359 41.9929 68.6746 42.1635 67.9173 42.1635C67.1386 42.1635 66.4293 41.9715 65.7893 41.5875C65.1599 41.2035 64.6639 40.6649 64.3013 39.9715C63.9386 39.2782 63.7573 38.4889 63.7573 37.6035C63.7573 36.7075 63.9386 35.9235 64.3013 35.2515C64.6639 34.5689 65.1599 34.0409 65.7893 33.6675C66.4293 33.2942 67.1386 33.1075 67.9173 33.1075ZM71.1813 37.6195C71.1813 36.9582 71.0479 36.3822 70.7813 35.8915C70.5146 35.4009 70.1519 35.0275 69.6933 34.7715C69.2453 34.5049 68.7493 34.3715 68.2053 34.3715C67.6613 34.3715 67.1653 34.4995 66.7173 34.7555C66.2693 35.0115 65.9119 35.3849 65.6453 35.8755C65.3786 36.3662 65.2453 36.9422 65.2453 37.6035C65.2453 38.2755 65.3786 38.8622 65.6453 39.3635C65.9119 39.8542 66.2693 40.2329 66.7173 40.4995C67.1653 40.7555 67.6613 40.8835 68.2053 40.8835C68.7493 40.8835 69.2453 40.7555 69.6933 40.4995C70.1519 40.2329 70.5146 39.8542 70.7813 39.3635C71.0479 38.8622 71.1813 38.2809 71.1813 37.6195ZM84.7938 37.2995C84.7938 37.5769 84.7778 37.8702 84.7458 38.1795H77.7378C77.7911 39.0435 78.0844 39.7209 78.6178 40.2115C79.1618 40.6915 79.8178 40.9315 80.5858 40.9315C81.2151 40.9315 81.7378 40.7875 82.1538 40.4995C82.5804 40.2009 82.8791 39.8062 83.0498 39.3155H84.6178C84.3831 40.1582 83.9138 40.8462 83.2098 41.3795C82.5058 41.9022 81.6311 42.1635 80.5858 42.1635C79.7538 42.1635 79.0071 41.9769 78.3458 41.6035C77.6951 41.2302 77.1831 40.7022 76.8098 40.0195C76.4364 39.3262 76.2498 38.5262 76.2498 37.6195C76.2498 36.7129 76.4311 35.9182 76.7938 35.2355C77.1564 34.5529 77.6631 34.0302 78.3138 33.6675C78.9751 33.2942 79.7324 33.1075 80.5858 33.1075C81.4178 33.1075 82.1538 33.2889 82.7938 33.6515C83.4338 34.0142 83.9244 34.5155 84.2658 35.1555C84.6178 35.7849 84.7938 36.4995 84.7938 37.2995ZM83.2898 36.9955C83.2898 36.4409 83.1671 35.9662 82.9218 35.5715C82.6764 35.1662 82.3404 34.8622 81.9138 34.6595C81.4978 34.4462 81.0338 34.3395 80.5218 34.3395C79.7858 34.3395 79.1564 34.5742 78.6338 35.0435C78.1218 35.5129 77.8284 36.1635 77.7538 36.9955H83.2898ZM90.1717 34.4515V39.6195C90.1717 40.0462 90.2623 40.3502 90.4437 40.5315C90.625 40.7022 90.9397 40.7875 91.3877 40.7875H92.4597V42.0195H91.1477C90.337 42.0195 89.729 41.8329 89.3237 41.4595C88.9183 41.0862 88.7157 40.4729 88.7157 39.6195V34.4515H87.5797V33.2515H88.7157V31.0435H90.1717V33.2515H92.4597V34.4515H90.1717ZM102.601 31.8275C102.324 31.8275 102.089 31.7315 101.897 31.5395C101.705 31.3475 101.609 31.1129 101.609 30.8355C101.609 30.5582 101.705 30.3235 101.897 30.1315C102.089 29.9395 102.324 29.8435 102.601 29.8435C102.868 29.8435 103.092 29.9395 103.273 30.1315C103.465 30.3235 103.561 30.5582 103.561 30.8355C103.561 31.1129 103.465 31.3475 103.273 31.5395C103.092 31.7315 102.868 31.8275 102.601 31.8275ZM103.305 33.2515V42.0195H101.849V33.2515H103.305ZM111.739 33.0915C112.806 33.0915 113.67 33.4169 114.331 34.0675C114.992 34.7075 115.323 35.6355 115.323 36.8515V42.0195H113.883V37.0595C113.883 36.1849 113.664 35.5182 113.227 35.0595C112.79 34.5902 112.192 34.3555 111.435 34.3555C110.667 34.3555 110.054 34.5955 109.595 35.0755C109.147 35.5555 108.923 36.2542 108.923 37.1715V42.0195H107.467V33.2515H108.923V34.4995C109.211 34.0515 109.6 33.7049 110.091 33.4595C110.592 33.2142 111.142 33.0915 111.739 33.0915ZM135.871 33.0915C136.554 33.0915 137.162 33.2355 137.695 33.5235C138.228 33.8009 138.65 34.2222 138.959 34.7875C139.268 35.3529 139.423 36.0409 139.423 36.8515V42.0195H137.983V37.0595C137.983 36.1849 137.764 35.5182 137.327 35.0595C136.9 34.5902 136.319 34.3555 135.583 34.3555C134.826 34.3555 134.223 34.6009 133.775 35.0915C133.327 35.5715 133.103 36.2702 133.103 37.1875V42.0195H131.663V37.0595C131.663 36.1849 131.444 35.5182 131.007 35.0595C130.58 34.5902 129.999 34.3555 129.263 34.3555C128.506 34.3555 127.903 34.6009 127.455 35.0915C127.007 35.5715 126.783 36.2702 126.783 37.1875V42.0195H125.327V33.2515H126.783V34.5155C127.071 34.0569 127.455 33.7049 127.935 33.4595C128.426 33.2142 128.964 33.0915 129.551 33.0915C130.287 33.0915 130.938 33.2569 131.503 33.5875C132.068 33.9182 132.49 34.4035 132.767 35.0435C133.012 34.4249 133.418 33.9449 133.983 33.6035C134.548 33.2622 135.178 33.0915 135.871 33.0915ZM151.043 33.2515L145.763 46.1475H144.259L145.987 41.9235L142.451 33.2515H144.067L146.819 40.3555L149.539 33.2515H151.043ZM161.589 34.8835C161.887 34.3609 162.325 33.9342 162.901 33.6035C163.477 33.2729 164.133 33.1075 164.869 33.1075C165.658 33.1075 166.367 33.2942 166.997 33.6675C167.626 34.0409 168.122 34.5689 168.485 35.2515C168.847 35.9235 169.029 36.7075 169.029 37.6035C169.029 38.4889 168.847 39.2782 168.485 39.9715C168.122 40.6649 167.621 41.2035 166.981 41.5875C166.351 41.9715 165.647 42.1635 164.869 42.1635C164.111 42.1635 163.445 41.9982 162.869 41.6675C162.303 41.3369 161.877 40.9155 161.589 40.4035V42.0195H160.133V30.1795H161.589V34.8835ZM167.541 37.6035C167.541 36.9422 167.407 36.3662 167.141 35.8755C166.874 35.3849 166.511 35.0115 166.053 34.7555C165.605 34.4995 165.109 34.3715 164.565 34.3715C164.031 34.3715 163.535 34.5049 163.077 34.7715C162.629 35.0275 162.266 35.4062 161.989 35.9075C161.722 36.3982 161.589 36.9689 161.589 37.6195C161.589 38.2809 161.722 38.8622 161.989 39.3635C162.266 39.8542 162.629 40.2329 163.077 40.4995C163.535 40.7555 164.031 40.8835 164.565 40.8835C165.109 40.8835 165.605 40.7555 166.053 40.4995C166.511 40.2329 166.874 39.8542 167.141 39.3635C167.407 38.8622 167.541 38.2755 167.541 37.6035ZM176.449 42.1635C175.628 42.1635 174.881 41.9769 174.209 41.6035C173.548 41.2302 173.025 40.7022 172.641 40.0195C172.268 39.3262 172.081 38.5262 172.081 37.6195C172.081 36.7235 172.273 35.9342 172.657 35.2515C173.052 34.5582 173.585 34.0302 174.257 33.6675C174.929 33.2942 175.681 33.1075 176.513 33.1075C177.345 33.1075 178.097 33.2942 178.769 33.6675C179.441 34.0302 179.969 34.5529 180.353 35.2355C180.748 35.9182 180.945 36.7129 180.945 37.6195C180.945 38.5262 180.742 39.3262 180.337 40.0195C179.942 40.7022 179.404 41.2302 178.721 41.6035C178.038 41.9769 177.281 42.1635 176.449 42.1635ZM176.449 40.8835C176.972 40.8835 177.462 40.7609 177.921 40.5155C178.38 40.2702 178.748 39.9022 179.025 39.4115C179.313 38.9209 179.457 38.3235 179.457 37.6195C179.457 36.9155 179.318 36.3182 179.041 35.8275C178.764 35.3369 178.401 34.9742 177.953 34.7395C177.505 34.4942 177.02 34.3715 176.497 34.3715C175.964 34.3715 175.473 34.4942 175.025 34.7395C174.588 34.9742 174.236 35.3369 173.969 35.8275C173.702 36.3182 173.569 36.9155 173.569 37.6195C173.569 38.3342 173.697 38.9369 173.953 39.4275C174.22 39.9182 174.572 40.2862 175.009 40.5315C175.446 40.7662 175.926 40.8835 176.449 40.8835ZM189.115 42.0195L187.035 38.7555L185.035 42.0195H183.515L186.347 37.6675L183.515 33.2515H185.163L187.243 36.4995L189.227 33.2515H190.747L187.931 37.5875L190.763 42.0195H189.115Z" fill="white"/>
</g>
<defs>
<clipPath id="clip0_1763_2021">
<rect width="196" height="49" fill="white"/>
</clipPath>
</defs>
</svg>
